<svg width="19" height="11" viewBox="0 0 19 11" fill="none" xmlns="http://www.w3.org/2000/svg">
<path d="M4.354 10.168C3.85933 10.168 3.39733 10.1073 2.968 9.986C2.53867 9.86467 2.156 9.69667 1.82 9.482C1.484 9.258 1.204 9.01067 0.98 8.74C0.765333 8.46933 0.625333 8.18467 0.56 7.886L2.436 7.326C2.55733 7.64333 2.772 7.91867 3.08 8.152C3.388 8.376 3.77533 8.49267 4.242 8.502C4.73667 8.51133 5.138 8.404 5.446 8.18C5.76333 7.956 5.922 7.66667 5.922 7.312C5.922 7.004 5.796 6.74733 5.544 6.542C5.30133 6.32733 4.96533 6.164 4.536 6.052L3.262 5.716C2.786 5.59467 2.366 5.41267 2.002 5.17C1.638 4.918 1.35333 4.61 1.148 4.246C0.942667 3.882 0.84 3.45733 0.84 2.972C0.84 2.048 1.14333 1.32933 1.75 0.816C2.366 0.293333 3.234 0.0319998 4.354 0.0319998C4.97933 0.0319998 5.52533 0.125333 5.992 0.312C6.468 0.489333 6.86467 0.746 7.182 1.082C7.49933 1.418 7.742 1.81467 7.91 2.272L6.048 2.846C5.936 2.52867 5.73067 2.258 5.432 2.034C5.13333 1.81 4.75533 1.698 4.298 1.698C3.83133 1.698 3.46267 1.80533 3.192 2.02C2.93067 2.23467 2.8 2.538 2.8 2.93C2.8 3.238 2.90267 3.48067 3.108 3.658C3.32267 3.83533 3.612 3.97067 3.976 4.064L5.264 4.386C6.104 4.59133 6.75733 4.96 7.224 5.492C7.69067 6.024 7.924 6.61667 7.924 7.27C7.924 7.84867 7.784 8.35733 7.504 8.796C7.224 9.22533 6.818 9.56133 6.286 9.804C5.754 10.0467 5.11 10.168 4.354 10.168ZM9.56791 10V0.199999H11.5699L16.3579 6.78V0.199999H18.2619V10H16.3579L11.4859 3.294V10H9.56791Z" fill="#3958BD"/>
</svg>
